Coordinates
nRows=7
nColumns=38

# SIMM Motion File Header:
name Coordinates
datacolumns 38
datarows 7
otherdata 1
range 1.65900000000000000000 1.66500000000000000000

Units are S.I. units (second, meters, Newtons, ...)
Angles are in degrees.

endheader
time	pelvis_tilt	pelvis_list	pelvis_rotation	pelvis_tx	pelvis_ty	pelvis_tz	hip_flexion_r	hip_adduction_r	hip_rotation_r	knee_angle_r	ankle_angle_r	subtalar_angle_r	mtp_angle_r	hip_flexion_l	hip_adduction_l	hip_rotation_l	knee_angle_l	ankle_angle_l	subtalar_angle_l	mtp_angle_l	lumbar_extension	lumbar_bending	lumbar_rotation	arm_flex_r	arm_add_r	arm_rot_r	elbow_flex_r	pro_sup_r	wrist_flex_r	wrist_dev_r	arm_flex_l	arm_add_l	arm_rot_l	elbow_flex_l	pro_sup_l	wrist_flex_l	wrist_dev_l
      1.65900000000000000000	     -3.81099717509915560000	      4.14186975087918620000	      1.40265884355295120000	      1.10769930094430480000	      1.01012786760750340000	     -0.33202227103926268000	     -6.65144556608698960000	      3.71123904897898300000	      4.87799632244644690000	    -75.20014401189715200000	    -19.21475163059936600000	     -0.00000000000011048864	      0.00000000000014502796	     34.63804047357545100000	      6.05398740585318600000	     -2.67707071935493660000	    -20.57371095099211500000	    -18.65685152758430500000	      0.00000000000000718077	      0.00000000000006040949	     -7.35962798956880440000	     -5.66537683460999550000	     11.03125472284278700000	    -27.71844404111114500000	    -11.21192660385986000000	     -9.78489251406637810000	     94.87601366394498800000	     80.59653305664957700000	      0.00000000000002896218	      0.00000000000003848706	    -54.90817095481008900000	    -17.21962329224760100000	    -12.32516033267960200000	    112.23638807847372000000	     89.41025890727223700000	      0.00000000000000340036	     -0.00000000000000213944
      1.66000000000000010000	     -3.74670180505654080000	      4.18487730679831230000	      1.44902531454279980000	      1.10773017546958470000	      1.00973442278972910000	     -0.33204256238110963000	     -6.47303650798830880000	      3.63323729725426330000	      4.69373329811629160000	    -75.84482647157069800000	    -19.06989018462232000000	     -0.00000000000011106274	      0.00000000000014576691	     34.47163826325977700000	      6.12561829132317560000	     -2.67973020314379260000	    -20.57387365409701000000	    -18.72729348753459900000	      0.00000000000000714895	      0.00000000000006067618	     -7.45236121102973570000	     -5.73870625511441370000	     10.91660766174525300000	    -27.79172482469914800000	    -11.20223975020733500000	     -9.73634743063243850000	     94.59657368751838600000	     80.35526102753971100000	      0.00000000000002911591	      0.00000000000003866448	    -54.76604004435387200000	    -17.25508642082179000000	    -12.27562228967103200000	    112.25373495252299000000	     89.38803288691148900000	      0.00000000000000343041	     -0.00000000000000216019
      1.66100000000000000000	     -3.68522515945774250000	      4.22808320541565670000	      1.49444038460085450000	      1.10776114644466460000	      1.00932684162167810000	     -0.33206246727273298000	     -6.29027884828047410000	      3.55373184026706350000	      4.51172986261553440000	    -76.48927512639842500000	    -18.92229590783144700000	     -0.00000000000011164152	      0.00000000000014650651	     34.31064988739370100000	      6.19705619056691860000	     -2.68024239012413370000	    -20.58704051938801200000	    -18.79731417986903700000	      0.00000000000000711777	      0.00000000000006093864	     -7.54128824087221790000	     -5.81219212978977670000	     10.80222274434664700000	    -27.86466112321353700000	    -11.19279760881609500000	     -9.68682489523371610000	     94.31387052644008400000	     80.11369894680162000000	      0.00000000000002926844	      0.00000000000003884211	    -54.62210258152386200000	    -17.29183665773617700000	    -12.22473152401594400000	    112.26972106027617000000	     89.36450696549111700000	      0.00000000000000346000	     -0.00000000000000218053
      1.66200000000000010000	     -3.62649474390312370000	      4.27150316981653870000	      1.53886453231574590000	      1.10779232336161360000	      1.00890522216875160000	     -0.33208193071543429000	     -6.10326231755727110000	      3.47275731944593780000	      4.33209519512727330000	    -77.13344956457835600000	    -18.77192750196814700000	     -0.00000000000011222027	      0.00000000000014724677	     34.15489645461647700000	      6.26835580725787000000	     -2.67838217594318540000	    -20.61298071524685900000	    -18.86669417292218000000	      0.00000000000000708752	      0.00000000000006119977	     -7.62647426269380540000	     -5.88587356185031490000	     10.68815559811323900000	    -27.93723910133850200000	    -11.18360337543836500000	     -9.63632589888071500000	     94.02792169626720000000	     79.87208949629344100000	      0.00000000000002942010	      0.00000000000003902012	    -54.47638244589908400000	    -17.32985536565520200000	    -12.17249892354343600000	    112.28436696979934000000	     89.33963340128416100000	      0.00000000000000348945	     -0.00000000000000220029
      1.66300000000000000000	     -3.57038803564061920000	      4.31516927721333680000	      1.58225840501800970000	      1.10782388973925210000	      1.00846968742008140000	     -0.33210092764278459000	     -5.91214501597337880000	      3.39032659847740450000	      4.15492555900026070000	    -77.77729226638916800000	    -18.61873987176846900000	     -0.00000000000011280135	      0.00000000000014798609	     34.00411031508299700000	      6.33963365375911000000	     -2.67366913437665140000	    -20.65148924343194600000	    -18.93326098160324000000	      0.00000000000000705667	      0.00000000000006146268	     -7.70803352599118870000	     -5.95980310641776790000	     10.57445526696867500000	    -28.00945803655430000000	    -11.17466396433812800000	     -9.58485214951319440000	     93.73876544250454400000	     79.63065878287932300000	      0.00000000000002957056	      0.00000000000003919930	    -54.32891659304758700000	    -17.36912114827858700000	    -12.11893973539456000000	    112.29770742254675000000	     89.31336798913889700000	      0.00000000000000351861	     -0.00000000000000222067
      1.66400000000000010000	     -3.51712691589933570000	      4.35905883655487260000	      1.62478933965332840000	      1.10785585248108730000	      1.00801999762059190000	     -0.33211964192960614000	     -5.71669993708392440000	      3.30652461317894280000	      3.98014257155299280000	    -78.42078936129773600000	    -18.46270078598081500000	     -0.00000000000011338478	      0.00000000000014872712	     33.85849670864350700000	      6.41098843447931530000	     -2.66591248300487260000	    -20.70243103423140600000	    -18.99789646462756600000	      0.00000000000000702582	      0.00000000000006172859	     -7.78572919830222790000	     -6.03397281863970040000	     10.46100276589589100000	    -28.08133378030476400000	    -11.16596101164449100000	     -9.53240134583304770000	     93.44640817500290100000	     79.38964418471158500000	      0.00000000000002972025	      0.00000000000003937846	    -54.17977420684247400000	    -17.40961783244410200000	    -12.06407869745573600000	    112.30975309489088000000	     89.28567310644739100000	      0.00000000000000354794	     -0.00000000000000224061
      1.66500000000000000000	     -3.46672395627308740000	      4.40317368654215090000	      1.66658523278778990000	      1.10788826274551180000	      1.00755622231549900000	     -0.33213821386892828000	     -5.51693844914884220000	      3.22140757936927800000	      3.80768574403180790000	    -79.06388131491549100000	    -18.30379766748908200000	     -0.00000000000011396850	      0.00000000000014946990	     33.71800950361623000000	      6.48252225765414460000	     -2.65497501742685630000	    -20.76563011413494700000	    -19.06111364629200400000	      0.00000000000000699490	      0.00000000000006199552	     -7.85955676166255300000	     -6.10839642700583950000	     10.34769878322229200000	    -28.15285950100113900000	    -11.15748638993667400000	     -9.47897214219779370000	     93.15087605601236500000	     79.14926023028608900000	      0.00000000000002986995	      0.00000000000003955699	    -54.02899944296255100000	    -17.45132505696168200000	    -12.00793770578559500000	    112.32052659260502000000	     89.25651294527045800000	      0.00000000000000357756	     -0.00000000000000226057
